<?xml version="1.0" standalone="no"?><!DOCTYPE svg PUBLIC "-//W3C//DTD SVG 1.1//EN" "http://www.w3.org/Graphics/SVG/1.1/DTD/svg11.dtd"><svg t="1666340698156" class="icon" viewBox="0 0 1024 1024" version="1.1" xmlns="http://www.w3.org/2000/svg" p-id="2654" xmlns:xlink="http://www.w3.org/1999/xlink" width="200" height="200"><path d="M540.096 779.52a28.544 28.544 0 0 1-20.224-8.256L254.528 507.968a28.16 28.16 0 0 1 0-40.064 28.672 28.672 0 0 1 40.32 0l265.408 263.296a28.16 28.16 0 0 1 0 40.064 28.608 28.608 0 0 1-20.16 8.32M510.016 896a28.544 28.544 0 0 1-20.16-8.32l-358.4-355.648C86.592 487.616 64 430.912 64 363.52c0-64.832 23.36-120.896 69.44-166.656A230.656 230.656 0 0 1 301.312 128c67.968 0 125.12 22.528 169.792 66.88l39.552 41.856 42.24-41.856C597.504 150.528 654.72 128 722.624 128c65.28 0 121.792 23.168 167.872 68.864A227.2 227.2 0 0 1 960 363.52c0 64.768-24 121.472-71.36 168.512l-87.168 86.464a28.672 28.672 0 0 1-40.32 0 28.16 28.16 0 0 1 0-40.064l87.104-86.4c36.8-36.544 54.656-78.592 54.656-128.512s-17.28-91.392-52.736-126.592a172.864 172.864 0 0 0-127.488-52.288c-52.992 0-95.36 16.448-129.472 50.304l-62.976 62.528a30.208 30.208 0 0 1-20.672 8.32 28.672 28.672 0 0 1-20.352-8.96L430.08 234.24c-33.472-33.216-75.84-49.664-128.832-49.664-50.304 0-92.032 17.088-127.552 52.288a170.368 170.368 0 0 0-52.672 126.592c0 52.544 16.576 94.592 50.688 128.448l358.4 355.712a28.16 28.16 0 0 1 0 40 28.608 28.608 0 0 1-20.16 8.32z" fill="#3477FD" p-id="2655"></path></svg>